<?xml version="1.0" standalone="no"?>
<!DOCTYPE svg PUBLIC "-//W3C//DTD SVG 20010904//EN"
 "http://www.w3.org/TR/2001/REC-SVG-20010904/DTD/svg10.dtd">
<svg version="1.0" xmlns="http://www.w3.org/2000/svg"
 width="757.000000pt" height="757.000000pt" viewBox="0 0 757.000000 757.000000"
 preserveAspectRatio="xMidYMid meet">
<metadata>
Created by potrace 1.14, written by Peter Selinger 2001-2017
</metadata>
<g transform="translate(0.000000,757.000000) scale(0.100000,-0.100000)"
fill="#000000" stroke="none">
<path d="M576 7543 c-2 -16 -8 -107 -11 -203 -4 -96 -12 -200 -17 -230 -20
-107 -19 -179 3 -234 12 -28 25 -62 31 -76 5 -14 12 -56 15 -95 4 -60 1 -83
-25 -160 -16 -49 -40 -112 -51 -139 -12 -27 -35 -102 -51 -165 -39 -156 -45
-174 -70 -219 -43 -77 -134 -96 -260 -54 -36 11 -82 24 -103 28 l-37 6 0
-3001 0 -3001 3785 0 3785 0 0 2389 0 2389 -34 21 c-40 25 -46 38 -46 99 0 69
9 90 46 113 l34 21 0 359 0 360 -21 -12 c-18 -9 -21 -17 -16 -50 4 -28 1 -39
-8 -39 -7 0 -16 -13 -20 -30 -4 -16 -11 -30 -16 -30 -22 0 -54 -83 -86 -230
-3 -14 -9 -29 -13 -35 -4 -5 -11 -41 -14 -80 -4 -38 -11 -71 -16 -73 -12 -4
-13 -102 -1 -102 10 0 20 -57 14 -81 -3 -9 -15 -22 -29 -29 -15 -9 -32 -36
-48 -79 -24 -62 -25 -78 -26 -271 0 -120 -5 -207 -10 -210 -6 -4 -12 -53 -15
-111 -6 -131 -25 -289 -36 -289 -4 0 -10 -14 -14 -30 -4 -17 -11 -28 -16 -24
-5 3 -12 -8 -15 -25 -4 -17 -10 -31 -15 -31 -5 0 -9 -16 -9 -35 0 -19 -4 -35
-9 -35 -5 0 -12 -18 -16 -40 -4 -22 -10 -40 -13 -40 -4 0 -8 -37 -10 -83 -2
-45 -10 -95 -17 -112 -8 -16 -13 -43 -13 -59 0 -15 -4 -31 -9 -35 -11 -7 -33
-87 -32 -116 0 -11 -4 -67 -9 -125 -6 -58 -9 -130 -8 -160 1 -30 -1 -59 -5
-65 -12 -20 -17 -60 -9 -80 6 -14 9 -15 10 -5 3 34 19 -28 20 -80 1 -32 4 -48
8 -38 6 14 12 9 31 -27 13 -25 28 -45 32 -45 16 0 10 -23 -12 -46 l-20 -22 25
-20 c21 -16 23 -22 13 -31 -8 -6 -24 -12 -38 -13 -20 -3 -24 1 -25 27 -1 17 2
35 7 41 10 13 2 44 -12 44 -5 0 -9 6 -9 14 0 11 -9 13 -35 9 -30 -5 -36 -2
-44 20 -6 14 -19 28 -30 32 -11 3 -23 15 -26 26 -4 12 -16 30 -26 40 -10 10
-19 27 -19 37 0 20 23 89 33 98 11 11 8 44 -3 44 -5 0 -10 7 -10 15 0 8 5 15
10 15 15 0 12 47 -2 53 -10 4 -10 7 0 18 15 17 17 219 2 219 -7 0 -8 13 -5 34
5 24 1 45 -15 76 -12 23 -21 54 -20 68 4 50 1 55 -18 36 -16 -17 -17 -16 -26
9 -6 15 -13 27 -18 27 -4 0 -8 16 -8 35 0 19 -5 35 -11 35 -5 0 -7 5 -4 10 4
6 11 8 16 5 16 -10 16 67 0 129 -12 47 4 159 28 195 13 20 16 57 18 191 1 91
5 175 8 188 3 12 1 22 -5 22 -5 0 -10 -4 -10 -10 0 -5 -18 10 -40 34 -22 24
-40 52 -40 63 0 28 -28 52 -40 33 -14 -22 -70 25 -70 59 0 24 5 30 31 35 29 5
31 9 27 41 -4 33 -2 35 24 35 30 0 59 33 63 73 4 36 28 107 35 107 10 0 40
121 40 159 0 16 5 33 11 37 8 5 9 26 4 68 -4 33 -9 72 -10 86 -2 14 -4 42 -4
62 -1 20 -8 43 -16 52 -8 8 -15 17 -15 21 0 18 -62 61 -82 57 -5 -1 -8 19 -8
44 0 35 4 47 18 50 19 5 55 59 56 84 1 9 11 15 25 15 15 0 27 8 32 22 4 12 14
25 21 30 32 20 40 59 33 152 -5 64 -11 91 -20 91 -15 0 -28 59 -19 84 3 9 3
24 -2 34 -4 9 -8 22 -8 27 -2 18 -47 17 -67 -1 -13 -12 -19 -32 -20 -68 -1
-29 -4 -39 -6 -23 -5 33 -23 36 -23 3 0 -13 -3 -32 -6 -41 -10 -24 -36 31 -33
70 3 46 -3 112 -8 93 -2 -10 -9 -18 -14 -18 -6 0 -8 4 -5 8 9 14 -25 54 -40
48 -22 -8 -64 15 -69 38 -10 45 -12 107 -3 112 5 3 6 18 3 34 -8 37 3 80 20
74 7 -3 30 -1 51 4 22 6 60 13 87 17 94 13 125 73 142 271 6 66 5 74 -26 134
-18 35 -42 73 -55 85 -60 55 -74 64 -91 58 -21 -7 -100 -91 -108 -113 -7 -22
-39 -39 -84 -45 -37 -4 -41 -2 -61 30 -12 20 -27 41 -33 48 -7 7 -17 22 -23
32 -6 11 -24 27 -40 35 -15 8 -34 21 -42 28 -7 6 -20 12 -28 12 -8 0 -14 5
-14 11 0 5 -15 29 -32 51 -27 33 -60 54 -174 108 -78 37 -144 72 -148 78 -3 6
-30 18 -59 28 -28 9 -56 20 -62 24 -5 4 -36 17 -68 29 -31 11 -83 34 -115 50
-84 42 -122 50 -276 55 -127 4 -141 7 -176 30 -27 18 -43 39 -56 73 -27 73
-26 73 -128 73 -104 0 -116 -6 -116 -61 0 -30 -8 -44 -45 -80 -25 -24 -56 -49
-71 -55 -25 -11 -133 -104 -208 -181 -23 -23 -67 -53 -99 -67 l-58 -26 -30 22
c-26 19 -31 20 -39 8 -5 -8 -10 -23 -10 -33 0 -9 -4 -25 -9 -35 -5 -9 -16 -33
-25 -52 -9 -19 -21 -43 -28 -52 -10 -14 -8 -27 14 -70 41 -82 52 -134 52 -259
1 -110 0 -117 -26 -157 -44 -65 -62 -73 -190 -79 -114 -5 -256 8 -267 25 -9
14 -91 49 -133 56 -32 6 -44 2 -87 -29 -46 -33 -59 -37 -143 -45 -197 -18
-541 -4 -647 26 -41 12 -71 15 -120 9 -36 -5 -109 -8 -161 -7 -52 1 -183 1
-290 0 -390 -4 -390 -4 -467 21 -81 25 -155 25 -254 -2 -52 -13 -61 -13 -109
3 -67 23 -104 60 -144 146 -17 38 -45 94 -61 124 -16 30 -28 61 -26 68 1 8 -5
25 -15 40 -14 21 -16 40 -11 103 4 42 2 103 -3 134 -7 44 -5 83 10 174 11 64
25 130 31 146 5 17 13 65 16 108 l6 77 -306 0 -305 0 -6 -27z m4526 -1068 c25
-38 49 -50 183 -91 50 -16 101 -36 115 -45 14 -9 43 -22 65 -30 22 -8 72 -33
110 -56 69 -41 94 -48 188 -57 27 -3 55 -10 63 -17 8 -6 14 -8 14 -3 0 4 13
-5 29 -20 18 -17 36 -26 45 -23 19 8 48 -20 44 -42 -3 -11 -12 -15 -28 -13
-14 2 -65 2 -115 0 -49 -1 -153 -3 -230 -3 -119 0 -148 4 -195 22 -138 53
-210 67 -360 70 -200 5 -201 5 -215 -7 -6 -5 -15 -6 -19 -2 -5 4 -6 -2 -4 -13
2 -15 -3 -21 -23 -23 -21 -2 -33 -15 -53 -53 -14 -28 -26 -59 -26 -69 0 -10
-6 -21 -12 -23 -8 -3 -6 -6 5 -6 16 -1 16 -3 1 -26 -9 -14 -21 -25 -27 -25 -5
0 -20 11 -33 25 -13 14 -33 25 -46 25 -21 1 -21 2 -5 11 17 10 17 12 2 29 -20
23 -19 130 2 130 7 0 13 5 13 10 0 21 53 60 81 60 42 0 72 15 110 54 18 20 43
36 54 36 25 0 86 61 110 110 27 55 75 100 107 100 21 0 34 -9 50 -35z m1427
-269 c1 -25 -2 -46 -7 -46 -11 0 -21 56 -14 82 7 30 18 12 21 -36z m-2446
-203 c3 -10 8 -30 11 -45 4 -15 15 -35 25 -45 13 -12 20 -35 22 -67 3 -41 0
-51 -18 -63 -18 -12 -26 -13 -49 -1 -58 28 -79 181 -30 220 27 22 34 22 39 1z
m517 -73 c0 -5 -7 -10 -15 -10 -8 0 -15 5 -15 10 0 6 7 10 15 10 8 0 15 -4 15
-10z m830 -194 c30 -49 35 -249 8 -314 -19 -45 -61 -72 -113 -72 -45 0 -121
40 -154 80 -35 44 -38 60 -15 95 8 13 18 49 21 79 5 49 9 57 30 62 13 4 28 15
34 25 5 11 15 19 22 19 7 0 32 14 57 30 61 39 83 38 110 -4z m-566 1 c3 -13
17 -29 31 -35 31 -14 30 -41 -3 -58 -12 -6 -30 -18 -40 -28 -18 -16 -52 -13
-52 4 0 4 -14 10 -30 14 l-30 6 20 20 c11 11 20 27 20 35 0 8 5 26 12 40 15
34 63 36 72 2z m1826 -287 c0 -16 -4 -30 -10 -30 -5 0 -10 14 -10 30 0 17 5
30 10 30 6 0 10 -13 10 -30z m-3460 -244 c0 -13 -6 -28 -13 -34 -23 -19 -130
-42 -164 -36 -32 6 -68 34 -44 34 7 0 10 4 6 9 -9 16 16 24 70 22 28 -1 66 5
85 13 49 21 60 20 60 -8z m-2923 -26 c28 0 52 -69 43 -122 -8 -44 -49 -108
-70 -108 -9 0 -24 -6 -35 -14 -33 -22 -94 -27 -127 -10 -26 13 -29 19 -23 47
4 18 12 37 19 42 16 12 39 54 43 77 1 9 22 35 45 58 31 30 48 40 63 36 11 -3
30 -6 42 -6z m3604 -50 c2 -53 -7 -101 -27 -138 -8 -15 -14 -37 -14 -49 0 -28
-18 -39 -27 -16 -3 10 -15 29 -25 42 -23 30 -24 108 -1 155 16 35 71 72 85 58
4 -4 8 -28 9 -52z m2153 -341 c3 -17 2 -38 -3 -48 -5 -9 -9 -26 -8 -36 1 -14
-5 -21 -20 -23 -21 -3 -23 1 -23 42 0 81 41 131 54 65z m23 -11 c-3 -8 -6 -5
-6 6 -1 11 2 17 5 13 3 -3 4 -12 1 -19z m-27 -118 c0 -5 -9 -10 -20 -10 -11 0
-20 5 -20 10 0 6 9 10 20 10 11 0 20 -4 20 -10z m581 -37 c-12 -20 -14 -14 -5
12 4 9 9 14 11 11 3 -2 0 -13 -6 -23z m-628 -145 c-18 -61 -36 -91 -69 -113
-25 -16 -34 -6 -11 14 8 6 12 23 9 39 -3 21 5 42 28 75 44 61 64 54 43 -15z
m837 -1078 c0 -5 -2 -10 -4 -10 -3 0 -8 5 -11 10 -3 6 -1 10 4 10 6 0 11 -4
11 -10z m-603 -552 c37 -26 49 -65 39 -125 -12 -67 -36 -109 -72 -127 -46 -22
-53 -21 -106 13 -39 25 -49 38 -63 83 -14 43 -15 61 -6 94 17 62 31 70 160 83
8 0 30 -9 48 -21z m923 -248 c0 -5 -7 -10 -16 -10 -8 0 -12 5 -9 10 3 6 10 10
16 10 5 0 9 -4 9 -10z"/>
<path d="M1860 7525 c0 -35 3 -43 15 -39 8 4 18 18 21 33 3 14 7 32 10 39 2 7
-6 12 -21 12 -23 0 -25 -4 -25 -45z"/>
<path d="M3006 7530 c-4 -25 -19 -90 -32 -145 -13 -55 -30 -145 -38 -201 -19
-127 -36 -167 -94 -220 -38 -35 -54 -43 -85 -44 -39 0 -60 15 -102 75 l-21 28
-31 -33 c-61 -65 -48 -110 37 -125 19 -4 45 -13 56 -20 28 -18 207 -19 291 -1
42 8 85 10 135 4 40 -4 87 -5 103 -2 68 14 121 79 92 113 -8 9 -22 42 -32 74
-10 31 -21 57 -26 57 -5 0 -30 -22 -56 -49 -41 -41 -55 -50 -91 -52 -33 -3
-47 2 -65 19 -21 22 -22 29 -27 295 -4 192 -8 259 -14 227z"/>
<path d="M3560 7563 c0 -5 5 -15 10 -23 8 -12 10 -11 10 8 0 12 -4 22 -10 22
-5 0 -10 -3 -10 -7z"/>
<path d="M3799 7498 c-1 -40 -1 -86 -2 -103 0 -16 0 -68 1 -113 2 -75 4 -84
22 -89 11 -3 20 -9 20 -14 0 -5 7 -9 15 -9 27 0 36 -44 18 -90 -14 -34 -20
-40 -37 -36 -33 8 -93 -17 -124 -52 -16 -18 -36 -32 -46 -32 -22 0 -66 29 -66
44 0 25 -26 66 -42 66 -9 0 -20 -10 -23 -21 -4 -12 -23 -37 -41 -56 -27 -27
-34 -42 -34 -73 0 -48 27 -70 83 -70 32 0 44 6 70 35 17 19 37 35 45 35 21 0
82 -48 82 -65 0 -29 41 -38 154 -33 143 6 193 30 210 102 5 22 1 38 -18 67
-34 50 -35 120 -4 178 12 22 28 43 36 46 27 10 121 -15 151 -41 l29 -24 7 23
c4 12 9 106 12 210 l5 187 -261 0 -261 0 -1 -72z"/>
<path d="M5910 7526 c0 -28 65 -91 116 -112 19 -8 57 -30 83 -49 33 -24 59
-35 82 -35 33 0 181 -18 207 -26 7 -2 15 -3 18 -3 3 0 15 -6 28 -15 23 -15 62
-20 226 -32 46 -3 87 -7 90 -9 14 -8 173 -26 320 -36 186 -13 199 -14 287 -28
37 -6 82 -13 98 -15 35 -5 63 -12 88 -21 15 -6 17 1 17 74 0 93 13 83 -130
101 -176 23 -293 41 -575 85 -159 25 -357 54 -440 65 -82 11 -172 26 -200 34
-39 12 -268 46 -307 46 -4 0 -8 -11 -8 -24z"/>
<path d="M3570 7345 c-2 -5 -4 -34 -5 -62 -3 -54 9 -73 17 -29 5 25 -7 111
-12 91z"/>
<path d="M1450 7079 c-7 -11 -20 -29 -31 -40 -25 -25 -24 -55 1 -62 11 -3 20
-12 20 -21 0 -17 49 -46 79 -46 23 0 61 44 61 72 0 22 -25 75 -48 101 -21 24
-69 22 -82 -4z"/>
<path d="M2083 7018 c-47 -52 -56 -103 -24 -132 39 -36 107 21 95 78 -7 35
-30 76 -42 76 -5 0 -18 -10 -29 -22z"/>
<path d="M1786 7008 c-23 -36 -24 -79 -3 -92 15 -9 22 -7 36 11 10 12 17 30
16 40 -3 30 -16 63 -25 63 -5 0 -16 -10 -24 -22z"/>
<path d="M2340 6955 c-14 -16 -5 -35 16 -35 15 0 20 35 5 44 -5 3 -14 -1 -21
-9z"/>
<path d="M6660 4555 c0 -8 2 -15 4 -15 2 0 6 7 10 15 3 8 1 15 -4 15 -6 0 -10
-7 -10 -15z"/>
</g>
</svg>
